<?xml version="1.0" encoding="UTF-8" standalone="no"?>
<!DOCTYPE svg PUBLIC "-//W3C//DTD SVG 1.1//EN" "http://www.w3.org/Graphics/SVG/1.1/DTD/svg11.dtd">
<svg version="1.1" xmlns="http://www.w3.org/2000/svg" xmlns:xlink="http://www.w3.org/1999/xlink" preserveAspectRatio="xMidYMid meet" viewBox="0 0 640 640" width="640" height="640"><defs><path d="M346.24 1.06L359.14 2.37L371.9 4.19L384.48 6.5L396.89 9.3L409.11 12.57L421.13 16.31L432.95 20.51L444.55 25.15L455.92 30.22L467.05 35.72L477.93 41.63L488.55 47.94L498.91 54.65L508.98 61.74L518.76 69.2L528.24 77.03L537.42 85.21L546.27 93.72L554.79 102.57L562.96 111.75L570.79 121.23L578.25 131.01L585.34 141.08L592.05 151.44L598.37 162.06L604.28 172.94L609.77 184.07L614.85 195.44L619.49 207.04L623.68 218.85L627.42 230.88L630.7 243.1L633.5 255.5L635.81 268.09L637.63 280.84L638.94 293.75L639.73 306.8L640 319.99L639.73 333.18L638.94 346.24L637.63 359.15L635.81 371.9L633.5 384.48L630.7 396.89L627.42 409.11L623.68 421.14L619.49 432.95L614.85 444.55L609.77 455.92L604.28 467.05L598.37 477.93L592.05 488.56L585.34 498.91L578.25 508.98L570.79 518.76L562.96 528.25L554.79 537.42L546.27 546.27L537.42 554.79L528.24 562.97L518.76 570.79L508.98 578.25L498.91 585.35L488.55 592.05L477.93 598.37L467.05 604.28L455.92 609.78L444.55 614.85L432.95 619.49L421.13 623.68L409.11 627.42L396.89 630.7L384.48 633.5L371.9 635.81L359.14 637.63L346.24 638.94L333.18 639.73L319.99 640L306.8 639.73L293.75 638.94L280.84 637.63L268.09 635.81L255.5 633.5L243.09 630.7L230.87 627.42L218.85 623.68L207.04 619.49L195.44 614.85L184.07 609.78L172.94 604.28L162.06 598.37L151.44 592.05L141.08 585.34L131.01 578.25L121.23 570.79L111.75 562.96L102.58 554.79L93.73 546.27L85.21 537.41L77.03 528.24L69.2 518.76L61.74 508.98L54.65 498.9L47.94 488.55L41.63 477.93L35.72 467.05L30.22 455.92L25.15 444.55L20.51 432.95L16.32 421.13L12.58 409.11L9.3 396.89L6.5 384.48L4.19 371.9L2.37 359.14L1.06 346.24L0.27 333.18L0 319.99L0.27 306.8L1.06 293.75L2.37 280.84L4.19 268.09L6.5 255.51L9.3 243.1L12.58 230.88L16.32 218.86L20.51 207.04L25.15 195.44L30.22 184.07L35.72 172.94L41.63 162.06L47.94 151.44L54.65 141.09L61.74 131.01L69.2 121.23L77.03 111.75L85.21 102.58L93.73 93.73L102.58 85.21L111.75 77.03L121.23 69.21L131.01 61.74L141.08 54.65L151.44 47.94L162.06 41.63L172.94 35.72L184.07 30.22L195.44 25.15L207.04 20.51L218.85 16.31L230.87 12.57L243.09 9.3L255.5 6.5L268.09 4.19L280.84 2.37L293.75 1.06L306.8 0.27L319.99 0L333.18 0.27L346.24 1.06ZM416.02 165.76L415.67 165.79L415.32 165.84L414.97 165.9L414.63 165.97L414.29 166.06L413.94 166.16L413.61 166.27L413.27 166.4L412.94 166.54L412.62 166.69L412.3 166.86L411.99 167.04L411.68 167.23L411.38 167.44L411.08 167.66L410.79 167.9L410.51 168.15L410.24 168.41L166.04 412.62L166.33 412.91L166.12 413.04L165.92 413.17L165.72 413.31L165.53 413.45L165.33 413.59L165.14 413.74L164.95 413.89L164.77 414.04L164.59 414.2L164.41 414.36L164.23 414.52L164.06 414.69L163.9 414.86L163.73 415.04L163.57 415.21L163.41 415.39L163.26 415.58L163.11 415.76L162.96 415.95L162.82 416.15L162.68 416.34L162.54 416.54L162.41 416.74L162.29 416.95L162.16 417.16L162.04 417.37L161.93 417.58L161.82 417.79L161.71 418.01L161.61 418.23L161.51 418.45L161.42 418.68L161.33 418.9L161.24 419.13L161.16 419.37L161.09 419.6L161.01 419.84L160.95 420.07L160.89 420.31L160.83 420.55L147.97 478.23L147.91 478.53L147.85 478.83L147.81 479.13L147.77 479.44L147.73 479.74L147.71 480.04L147.69 480.34L147.68 480.65L147.68 480.95L147.69 481.25L147.7 481.55L147.72 481.85L147.75 482.15L147.79 482.44L147.83 482.74L147.88 483.03L147.94 483.33L148.01 483.62L148.08 483.91L148.16 484.2L148.24 484.48L148.34 484.77L148.44 485.05L148.55 485.33L148.66 485.6L148.78 485.87L148.91 486.14L149.05 486.41L149.19 486.68L149.34 486.94L149.5 487.19L149.66 487.45L149.83 487.7L150 487.94L150.19 488.18L150.38 488.42L150.57 488.66L150.77 488.88L150.98 489.11L151.2 489.33L151.37 489.5L151.54 489.66L151.72 489.82L151.9 489.98L152.08 490.13L152.27 490.28L152.46 490.43L152.65 490.57L152.84 490.7L153.04 490.84L153.23 490.97L153.43 491.09L153.64 491.21L153.84 491.33L154.05 491.44L154.25 491.55L154.46 491.65L154.68 491.75L154.89 491.85L155.11 491.94L155.32 492.03L155.54 492.11L155.76 492.19L155.98 492.26L156.21 492.33L156.43 492.4L156.66 492.46L156.88 492.51L157.11 492.57L157.34 492.61L157.57 492.66L157.8 492.7L158.03 492.73L158.27 492.76L158.5 492.78L158.73 492.81L158.97 492.82L159.2 492.83L159.44 492.84L159.67 492.84L159.74 492.84L159.8 492.84L159.87 492.84L159.93 492.84L160 492.84L160.06 492.84L160.13 492.83L160.2 492.83L160.26 492.83L160.33 492.82L160.39 492.82L160.46 492.82L160.52 492.81L160.59 492.81L160.65 492.8L160.72 492.8L160.78 492.79L160.85 492.79L160.92 492.78L160.98 492.77L161.05 492.76L161.11 492.76L161.18 492.75L161.24 492.74L161.31 492.73L161.37 492.72L161.44 492.71L161.5 492.7L161.57 492.69L161.63 492.68L161.7 492.67L161.76 492.66L161.83 492.65L161.9 492.64L161.96 492.62L162.03 492.61L162.09 492.6L162.16 492.58L162.22 492.57L162.28 492.55L219.98 479.69L220.22 479.63L220.46 479.57L220.7 479.51L220.93 479.44L221.17 479.36L221.4 479.28L221.63 479.2L221.85 479.11L222.08 479.01L222.3 478.92L222.52 478.82L222.74 478.71L222.95 478.6L223.17 478.48L223.38 478.36L223.58 478.24L223.79 478.11L223.99 477.98L224.19 477.85L224.38 477.71L224.58 477.57L224.77 477.42L224.95 477.27L225.14 477.12L225.32 476.96L225.49 476.8L225.67 476.63L225.84 476.47L226.01 476.29L226.17 476.12L226.33 475.94L226.49 475.76L226.64 475.58L226.79 475.39L226.94 475.2L227.08 475L227.22 474.81L227.36 474.61L227.49 474.4L227.62 474.2L227.91 474.49L243.03 459.36L181.16 397.5L204.63 374.03L266.5 435.89L418.25 284.15L356.38 222.28L379.85 198.81L441.72 260.68L472.11 230.28L472.37 230.01L472.62 229.73L472.86 229.44L473.08 229.15L473.29 228.84L473.48 228.54L473.66 228.22L473.83 227.9L473.99 227.58L474.13 227.25L474.25 226.92L474.37 226.58L474.47 226.24L474.56 225.89L474.63 225.55L474.69 225.2L474.74 224.85L474.77 224.5L474.79 224.15L474.8 223.8L474.79 223.44L474.77 223.09L474.74 222.74L474.69 222.39L474.63 222.04L474.56 221.7L474.47 221.35L474.37 221.01L474.26 220.68L474.13 220.34L473.99 220.01L473.83 219.69L473.67 219.37L473.48 219.05L473.29 218.75L473.08 218.44L472.86 218.15L472.63 217.86L472.38 217.58L472.12 217.31L423.21 168.42L422.94 168.16L422.66 167.91L422.37 167.67L422.08 167.45L421.78 167.24L421.47 167.05L421.15 166.87L420.83 166.7L420.51 166.54L420.18 166.4L419.85 166.27L419.51 166.16L419.17 166.06L418.83 165.97L418.48 165.9L418.13 165.84L417.78 165.79L417.43 165.76L417.08 165.74L416.73 165.73L416.38 165.74L416.02 165.76Z" id="bqN7Wix5T"></path></defs><g><g><g><use xlink:href="#bqN7Wix5T" opacity="1" fill="#f8be12" fill-opacity="1"></use><g><use xlink:href="#bqN7Wix5T" opacity="1" fill-opacity="0" stroke="#000000" stroke-width="1" stroke-opacity="0"></use></g></g></g></g></svg>